<svg xmlns="http://www.w3.org/2000/svg" viewBox="0 0 512 512" fill="rgb(92,74,127)">

<path d="M495.304 144.696h-83.478v-128C411.826 7.475 404.351 0 395.13 0H116.87c-9.22 0-16.696 7.475-16.696 16.696v128H16.696C7.475 144.696 0 152.171 0 161.391V395.13c0 9.22 7.475 16.696 16.696 16.696h83.478v83.478c0 9.22 7.475 16.696 16.696 16.696H395.13c9.22 0 16.696-7.475 16.696-16.696v-83.478h83.478c9.22 0 16.696-7.475 16.696-16.696V161.391C512 152.171 504.525 144.696 495.304 144.696zM133.565 33.391h244.87v111.304h-244.87V33.391zM378.435 478.609h-244.87V311.652h244.87V478.609zM478.609 378.435h-66.783v-83.478c0-9.22-7.475-16.696-16.696-16.696H116.87c-9.22 0-16.696 7.475-16.696 16.696v83.478H33.391V178.087h445.217V378.435z"></path>

<path d="M329.461 346.156H184.765c-9.22 0-16.696 7.475-16.696 16.696s7.475 16.696 16.696 16.696h144.696c9.22 0 16.696-7.475 16.696-16.696s-7.475-16.696-16.696-16.696z"></path>

<path d="M262.678 412.939h-77.913c-9.22 0-16.696 7.475-16.696 16.696s7.475 16.696 16.696 16.696h77.913c9.22 0 16.696-7.475 16.696-16.696s-7.475-16.696-16.696-16.696z"></path>

<circle cx="362.852" cy="229.287" r="16.696"></circle>
<circle cx="429.635" cy="229.287" r="16.696"></circle>

</svg>